# xmcd
#
# Track frame offsets: 
#        150
#        22665
#        43500
#        63900
#        93075
#        122475
#        138650
#        153430
#        167400
#
# Disc length: 2657 seconds
#
# Revision: 12
# Processed by: cddbd v1.5.2PL0 Copyright (c) Steve Scherf et al.
# Submitted via: ExactAudioCopyFreeDBPlugin 1.0
#
DISCID=610a5f09
DTITLE=中島みゆき - 予感
DYEAR=0
DGENRE=JPop
TTITLE0=この世に二人だけ
TTITLE1=夏土産
TTITLE2=髪を洗う女
TTITLE3=ばいばいどぐおぶざべい
TTITLE4=誰のせいでもない雨が
TTITLE5=縁
TTITLE6=テキーラを飲みほして
TTITLE7=金魚
TTITLE8=ファイト！
EXTD=YEAR: 0
EXTT0=
EXTT1=
EXTT2=
EXTT3=
EXTT4=
EXTT5=
EXTT6=
EXTT7=
EXTT8=
PLAYORDER=
